<svg preserveAspectRatio="none" overflow="visible" style="display: block;" width="24" height="24" viewBox="0 0 24 24" fill="none" xmlns="http://www.w3.org/2000/svg">
<g id="history_2">
<mask id="mask0_0_11" style="mask-type:alpha" maskUnits="userSpaceOnUse" x="0" y="0" width="24" height="24">
<rect id="Bounding box" width="24" height="24" fill="#496681"/>
</mask>
<g mask="url(#mask0_0_11)">
<path id="history_2_2" d="M11.9997 22C9.41635 22 7.17468 21.1417 5.27468 19.425C3.37468 17.7083 2.29968 15.5667 2.04968 13H4.07468C4.32468 15.0167 5.20385 16.6875 6.71218 18.0125C8.22052 19.3375 9.98302 20 11.9997 20C14.233 20 16.1247 19.225 17.6747 17.675C19.2247 16.125 19.9997 14.2333 19.9997 12C19.9997 9.76668 19.2247 7.87502 17.6747 6.32502C16.1247 4.77502 14.233 4.00002 11.9997 4.00002C10.5663 4.00002 9.23718 4.35418 8.01218 5.06252C6.78718 5.77085 5.81635 6.75002 5.09968 8.00002H7.99968V10H2.19968C2.68302 7.66668 3.84135 5.75002 5.67468 4.25002C7.50802 2.75002 9.61635 2.00002 11.9997 2.00002C13.383 2.00002 14.683 2.26252 15.8997 2.78752C17.1163 3.31252 18.1747 4.02502 19.0747 4.92502C19.9747 5.82502 20.6872 6.88335 21.2122 8.10002C21.7372 9.31668 21.9997 10.6167 21.9997 12C21.9997 13.3833 21.7372 14.6833 21.2122 15.9C20.6872 17.1167 19.9747 18.175 19.0747 19.075C18.1747 19.975 17.1163 20.6875 15.8997 21.2125C14.683 21.7375 13.383 22 11.9997 22ZM14.7997 16.2L10.9997 12.4V7.00002H12.9997V11.6L16.1997 14.8L14.7997 16.2Z" fill="#91ACC5"/>
</g>
</g>
</svg>
